<?xml version="1.0" encoding="utf-8"?>
<!-- Generator: Adobe Illustrator 18.0.0, SVG Export Plug-In . SVG Version: 6.00 Build 0)  -->
<!DOCTYPE svg PUBLIC "-//W3C//DTD SVG 1.1//EN" "http://www.w3.org/Graphics/SVG/1.1/DTD/svg11.dtd">
<svg version="1.1" id="Layer_1" xmlns="http://www.w3.org/2000/svg" xmlns:xlink="http://www.w3.org/1999/xlink" x="0px" y="0px"
	 viewBox="0 0 1151.8 410.4" enable-background="new 0 0 1151.8 410.4" xml:space="preserve">
<g>
	<g>
		<path d="M0,3.3h97.1c37,0,43.2,20.7,43.2,33.1c0,14.9-6.5,24.4-21.7,29.4v0.3c15.9,2.2,18.3,20.7,18.3,32.6c0,6,0.6,20.3,6.9,26.5
			h-39.7c-3.4-5.6-3.6-10.6-3.6-23.4c0-17.1-8-21.3-19.3-21.3H36.3v44.7H0V3.3z M36.3,57.3h48.1c8,0,17.4-4.1,17.4-15.5
			c0-12.1-10.5-15.2-19.3-15.2H36.3V57.3z"/>
		<path d="M290.9,100.2h-61.4l-10.8,25.1h-39.1L238.3,3.3h43.8l58.7,121.9h-39.1L290.9,100.2z M260.2,29.6l-21,48.3h41.9L260.2,29.6
			z"/>
		<path d="M382,3.3h83.2c45.8,0,65.7,24.3,65.7,61c0,36.7-20.6,61-62.5,61H382V3.3z M418.3,102.1h40.4c23.9,0,34.8-13.2,34.8-38.9
			c0-22.5-10.5-36.5-38.2-36.5h-37V102.1z"/>
		<path d="M674.3,100.2H613l-10.9,25.1H563L621.8,3.3h43.8l58.7,121.9h-39.1L674.3,100.2z M643.7,29.6l-21,48.3h41.9L643.7,29.6z"/>
		<path d="M769.4,3.3h97.1c37,0,43.2,20.7,43.2,33.1c0,14.9-6.5,24.4-21.7,29.4v0.3c15.9,2.2,18.3,20.7,18.3,32.6
			c0,6,0.6,20.3,6.9,26.5h-39.7c-3.4-5.6-3.6-10.6-3.6-23.4c0-17.1-8-21.3-19.3-21.3h-45.1v44.7h-36.3V3.3z M805.6,57.3h48.1
			c8,0,17.4-4.1,17.4-15.5c0-12.1-10.5-15.2-19.3-15.2h-46.2V57.3z"/>
		<path d="M1064.3,38.7c-2.2-15.9-18.9-17.6-33.5-17.6c-15,0-24.7,6.1-24.7,14.3c0,6.5,6,10.1,15.3,11.4l45.5,6.7
			c24.3,3.6,42.8,12,42.8,34.2c0,22.7-16.8,41-69.4,41c-32.5,0-74.8-3.8-75.2-41.8h40.8c0.4,16.7,18.7,19.6,34.4,19.6
			c17,0,28.6-4.6,28.6-15.2c0-9.4-8.2-12-22.6-14l-33.1-4.6c-23.2-3.2-45.6-9.6-45.6-34.5c0-27.2,24.3-38.3,66.2-38.3
			c27.5,0,68.3,4.3,70.7,38.8H1064.3z"/>
	</g>
	<g>
		<path d="M1133.6,2.4c3.1,0,6.1,0.8,9,2.4c2.9,1.6,5.2,3.8,6.8,6.7c1.6,2.9,2.5,6,2.5,9.1c0,3.2-0.8,6.2-2.4,9.1
			c-1.6,2.9-3.9,5.1-6.8,6.7c-2.9,1.6-5.9,2.4-9.1,2.4c-3.2,0-6.2-0.8-9.1-2.4c-2.9-1.6-5.1-3.9-6.7-6.7c-1.6-2.9-2.4-5.9-2.4-9.1
			c0-3.2,0.8-6.2,2.5-9.1c1.6-2.9,3.9-5.2,6.8-6.7C1127.6,3.2,1130.5,2.4,1133.6,2.4z M1133.6,4.7c-2.7,0-5.3,0.7-7.8,2.1
			c-2.5,1.4-4.5,3.3-6,5.9c-1.4,2.6-2.1,5.2-2.1,8c0,2.8,0.7,5.4,2.1,7.9c1.4,2.5,3.4,4.5,5.9,5.9c2.5,1.4,5.2,2.1,7.9,2.1
			c2.8,0,5.4-0.7,7.9-2.1c2.5-1.4,4.5-3.4,5.9-5.9c1.4-2.5,2.1-5.2,2.1-7.9c0-2.8-0.7-5.4-2.1-8c-1.4-2.6-3.4-4.5-5.9-5.9
			C1138.9,5.4,1136.3,4.7,1133.6,4.7z M1123.9,10.1h9.3c3.1,0,5.3,0.4,6.5,1.1c1.7,1.1,2.6,2.6,2.6,4.5c0,1.2-0.4,2.3-1.1,3.2
			c-0.8,1-1.9,1.6-3.5,2.1l3.5,6.4c0.5,0.9,1,1.6,1.6,2.1c0.3,0.2,0.6,0.4,1.1,0.5v0.9h-6.2l-5.3-9.5h-1.2v5.1
			c0,1.5,0.2,2.4,0.6,2.8c0.4,0.4,1.2,0.6,2.5,0.7v0.9h-10.9V30c1.1,0,1.7-0.2,2.1-0.5c0.4-0.5,0.6-1.5,0.6-3V14.3
			c0-1.4-0.2-2.3-0.4-2.7c-0.3-0.4-0.9-0.6-1.8-0.7V10.1z M1131.2,20.1c0.6,0.1,1.1,0.1,1.5,0.1c1.1,0,2.1-0.4,2.9-1.3
			c0.8-0.8,1.2-2,1.2-3.4c0-1.4-0.4-2.5-1.1-3.3c-0.7-0.7-1.9-1.1-3.4-1.1h-1V20.1z"/>
	</g>
	<g>
		<path d="M301.6,175.8c0.1,8.1,7.7,10.2,14.6,10.2c7.2,0,12.3-2.7,12.3-7.7c0-4.1-3.2-5.8-8.4-6.7l-10.3-1.7
			c-5.4-0.9-13.5-3-13.5-11.9c0-8.3,6.5-13.8,18.2-13.8c9.1,0,18.7,3.3,19.3,14.2H327c-0.6-3.6-2.6-8.4-13.5-8.4
			c-5,0-10.5,2.1-10.5,7.4c0,2.8,1.8,5,7.4,6l11.1,1.9c3.6,0.6,13.7,2.4,13.7,11.6c0,11.6-10.4,14.9-19.5,14.9
			c-10.2,0-20.8-3.6-20.8-16.1H301.6z"/>
		<path d="M425.6,145.4h8.2l-20,26.4v19H407v-18.7l-19.9-26.7h8.6l14.8,20.6L425.6,145.4z"/>
		<path d="M492.5,175.8c0.1,8.1,7.7,10.2,14.6,10.2c7.2,0,12.3-2.7,12.3-7.7c0-4.1-3.2-5.8-8.4-6.7l-10.3-1.7
			c-5.4-0.9-13.5-3-13.5-11.9c0-8.3,6.5-13.8,18.2-13.8c9.1,0,18.7,3.3,19.3,14.2h-6.7c-0.6-3.6-2.6-8.4-13.5-8.4
			c-5,0-10.5,2.1-10.5,7.4c0,2.8,1.8,5,7.4,6l11.1,1.9c3.6,0.6,13.7,2.4,13.7,11.6c0,11.6-10.4,14.9-19.5,14.9
			c-10.2,0-20.8-3.6-20.8-16.1H492.5z"/>
		<path d="M595.6,151.2h-17.1v-5.8h41v5.8h-17.1v39.5h-6.7V151.2z"/>
		<path d="M675.8,145.4h36.5v5.8h-29.7v13.1h28.8v5.8h-28.8v14.7h30.4v5.8h-37.1V145.4z"/>
		<path d="M817.4,145.4h9.3v45.3H820v-37.6h-0.1l-17.7,37.6h-6l-17.6-36.8h-0.1v36.8h-6.7v-45.3h9.5l18,37.6L817.4,145.4z"/>
	</g>
	<g>
		<path fill="#9EC54C" d="M215.5,362.1h41c0-0.7,0-1.4,0-2.1c0-1.1,0-2.1,0-3.2h-41.1c0.7-47,18.6-90.9,49.3-128.6l33.7,15.3
			c1.3-1.5,2.5-3.1,3.8-4.6l-33.7-15.3c4.9-5.8,10.1-11.3,15.7-16.8h-13.7c-15.1,15.6-27.8,32.4-38,50.2
			c-18.6,32.5-28,66.9-28,102.5c0,17.3,2.2,34.3,6.6,50.9h11.2C218.1,394.8,215.7,378.7,215.5,362.1z"/>
		<path fill="#9EC54C" d="M860.1,232l-32.8,13.6c1.2,1.5,2.4,3.1,3.6,4.7l32.8-13.6c26.7,35.7,42.1,76.6,42.7,120.1h-38
			c0,1.1,0,2.1,0,3.2c0,0.7,0,1.4,0,2.1h38c-0.2,16.5-2.6,32.7-6.9,48.3h11.2c4.4-16.6,6.6-33.6,6.6-50.9c0-35.5-9.4-70-28-102.5
			c-10.2-17.8-22.9-34.6-38-50.2h-13.7C845.7,214.9,853.2,223.3,860.1,232z"/>
		<path fill="#9EC54C" d="M285.9,273.7c-15.6,27.2-23.5,56.1-23.5,85.9c0,17.3,2.7,34.3,8,50.9h7.5c-5.1-15.5-8-31.7-8.2-48.3h48.8
			c0.3,16.5,3.6,32.7,9.9,48.3h7.6c-6.4-15.3-9.9-31.6-10.3-48.3h48.8c0.4,16.7,4.8,32.9,13.1,48.3h7.9
			c-8.4-14.9-13.3-31.2-13.7-48.3h48.8c0.4,12.1,3.9,23.9,10.2,35c2.7,4.7,5.8,9.1,9.4,13.4h8.7c-12.7-13.9-20.4-30.5-21.1-48.3
			h48.8c1.4,21.9,20.1,40.4,46.1,48.3h56.5c26.1-7.9,44.8-26.5,46.1-48.3h48.8c-0.7,17.9-8.4,34.5-21.1,48.3h8.7
			c3.6-4.3,6.7-8.7,9.4-13.4c6.4-11.1,9.8-22.9,10.2-35h48.8c-0.4,17.1-5.3,33.4-13.7,48.3h7.9c8.3-15.4,12.7-31.6,13.1-48.3h48.8
			c-0.3,16.8-3.9,33-10.3,48.3h7.6c6.3-15.6,9.6-31.8,9.9-48.3h48.8c-0.3,16.6-3.1,32.8-8.2,48.3h7.5c5.3-16.6,8-33.6,8-50.9
			c0-29.8-7.9-58.7-23.5-85.9c-14.2-24.9-34.3-47.3-59.7-66.9h-10.4c52.4,38.4,85.2,91.4,86.2,149.9h-48.8
			c-0.5-23.2-6.9-45.7-19-66.9c-12.2-21.3-29.7-40.5-52-57c-13.5-10-28.5-18.7-44.6-26h-14.7c72.2,29.1,121.6,85.3,123,149.9h-48.8
			c-0.5-17.6-5.4-34.7-14.6-50.8c-9.4-16.4-22.8-31.1-40-43.8c-17.1-12.7-37.1-22.6-59.3-29.5c-21.9-6.8-45-10.5-68.9-10.8v-15h-7.3
			v15c-1.4,0-2.9,0.1-4.3,0.1l-1-15.1h-13.4l2.4,15.7c-2.3,0.2-4.6,0.4-7,0.6l-3.3-16.3h-12l5,17.7c-3.3,0.5-6.6,1-9.8,1.7
			l-6.9-19.3h-10.4l9,21.1c-4,0.9-7.9,1.9-11.8,3l-12.7-24.1h-9.6l15.5,26.2c-3.9,1.2-7.7,2.6-11.4,4l-21.2-30.2H434
			c-2,0.9-3.9,1.8-5.9,2.8l-2.5-2.8h-9.9l5.8,6.1c-4.6,2.4-9.2,5-13.6,7.6l-15.2-13.7h-7.7l18.8,16.2c-3.9,2.4-7.6,5-11.3,7.6
			l-31.3-23.8h-15.7C320.2,226.4,300.1,248.8,285.9,273.7z M564.6,227.2c95.9,1.4,173.5,58.8,175.5,129.6h-48.8
			c-0.5-12-3.9-23.7-10.2-34.7c-6.6-11.5-16-21.8-28-30.6c-12-8.9-25.9-15.8-41.5-20.7c-15-4.7-30.8-7.2-47.1-7.5V227.2z
			 M564.6,268.6c65,1.4,117.5,40.2,119.5,88.2h-48.8c-1.9-28.1-32.6-50.8-70.7-52.1V268.6z M564.6,310c34.1,1.4,61.5,21.6,63.4,46.8
			h-63.4V310z M564.6,362.1H628c-1.7,25.3-29.2,45.6-63.4,47V362.1z M318.4,356.8h-48.8c0.7-41.5,17.4-80.2,45.7-112.8l41,19.3
			c-7.3,8.4-13.6,17.3-18.9,26.6C325.3,311.1,318.9,333.6,318.4,356.8z M374.5,356.8h-48.8c0.7-33.3,14.2-64.3,36.9-90.6l41,19.3
			c-5.6,6.5-10.4,13.3-14.5,20.4C379.8,322.1,374.9,339.2,374.5,356.8z M539.3,306.9c-1.6,0.4-3.3,0.8-4.8,1.2l-17.7-33.6
			c2.6-0.7,5.2-1.4,7.9-2L539.3,306.9z M530.1,271.4c2.1-0.4,4.3-0.8,6.5-1.1l9.9,35.3c-1.3,0.2-2.7,0.4-4,0.7L530.1,271.4z
			 M531.7,309c-1.5,0.5-3,1-4.5,1.6l-22.5-32c2.5-0.9,5-1.8,7.5-2.6L531.7,309z M524.9,311.4c-1.5,0.6-2.9,1.2-4.3,1.9l-26.8-30.1
			c2.3-1.1,4.7-2.2,7.2-3.2L524.9,311.4z M518.6,314.3c-1.4,0.7-2.8,1.5-4.2,2.3l-30.9-27.9c2.2-1.3,4.5-2.6,6.9-3.8L518.6,314.3z
			 M501.1,326.8c-0.9,0.9-1.8,1.9-2.7,2.9l-40.9-19.6c1.4-1.5,2.8-3,4.3-4.5L501.1,326.8z M462.6,304.7c1.4-1.4,2.9-2.8,4.5-4.1
			l37.3,23.2c-1,0.8-1.9,1.7-2.8,2.5L462.6,304.7z M504.2,333l50.5,23.8h-60.9C494.5,348,498.2,339.9,504.2,333z M504.5,332.6
			c0.8-0.9,1.6-1.8,2.5-2.6l49.6,26.8h-1.7L504.5,332.6z M505.3,323l-36.7-23.7c1.7-1.5,3.6-2.9,5.4-4.3l34.6,25.3
			C507.5,321.3,506.4,322.2,505.3,323z M475.7,293.9c1.9-1.3,3.8-2.6,5.8-3.8l31.7,27.3c-1.2,0.7-2.4,1.5-3.5,2.3L475.7,293.9z
			 M478.9,284.6l-30.8-27.8c3.3-2,6.6-3.8,10-5.6l28.1,29.4C483.7,281.8,481.3,283.2,478.9,284.6z M476.7,285.9
			c-2.1,1.3-4.1,2.7-6.1,4.1l-33.9-25.8c2.7-1.9,5.5-3.8,8.4-5.6L476.7,285.9z M468.8,291.3c0,0-0.1,0.1-0.1,0.1
			c-1.9,1.4-3.8,2.9-5.6,4.4l-36.7-23.6c2.5-2.1,5.1-4.2,7.8-6.2L468.8,291.3z M461.5,297.1c-1.6,1.4-3.2,2.9-4.7,4.4l-39-21.5
			c2.1-2,4.2-4,6.5-6L461.5,297.1z M455.8,302.4c-1.6,1.6-3,3.2-4.5,4.8l-40.8-19.6c1.9-2.2,3.9-4.3,6-6.4L455.8,302.4z
			 M411.9,276.7L373,255.2c2.7-2.7,5.5-5.3,8.4-7.8l37.2,23.1C416.3,272.5,414.1,274.6,411.9,276.7z M410.6,278
			c-2.2,2.2-4.3,4.4-6.2,6.7l-40.8-19.6c2.5-2.8,5.1-5.6,7.8-8.3L410.6,278z M430.5,356.8h-48.8c0.7-25.1,10.9-48.5,28.1-68.3
			l41,19.3c-3.9,4.5-7.3,9.3-10.1,14.3C434.4,333.1,431,344.7,430.5,356.8z M437.8,356.8c0.7-16.9,7.7-32.7,19.3-46.1l41.1,19.4
			c-6.7,7.8-10.9,16.9-11.5,26.7H437.8z M557.3,409.2c-34.3-1.3-61.8-21.7-63.5-47h63.5V409.2z M557.3,356.8h-0.7l-49.2-27.2
			c0.8-0.8,1.7-1.6,2.5-2.3L557.3,356.8L557.3,356.8z M557.3,356.6l-46.6-30c1-0.8,2-1.6,3-2.4l43.6,31.8V356.6z M557.3,356
			l-42.6-32.4c1-0.7,2.1-1.4,3.2-2.1l39.5,34V356z M557.3,355.4L519,320.8c1.2-0.7,2.5-1.4,3.8-2.1l34.5,36.1V355.4z M557.3,354.5
			l-32.7-36.7c1.3-0.6,2.6-1.2,3.9-1.7l28.8,37.7V354.5z M557.3,353.4l-26.8-38.1c1.3-0.5,2.7-1,4.1-1.4l22.7,38.4V353.4z
			 M557.3,351.5l-20.2-38.4c1.4-0.4,2.9-0.8,4.4-1.1l15.9,37.1V351.5z M557.3,347.3l-12.9-35.9c1.2-0.2,2.4-0.4,3.6-0.6l9.3,32.9
			V347.3z M557.3,337.9l-5.6-27.5c0.8-0.1,1.7-0.2,2.5-0.2l3,20V337.9z M557.3,290.2l-1.4-21.6c0.5,0,0.9,0,1.4,0V290.2z
			 M557.3,227.2v36c-0.6,0-1.1,0-1.7,0l-2.3-36C554.7,227.2,556,227.2,557.3,227.2z M553.5,304.8c-0.9,0.1-1.9,0.2-2.8,0.2
			l-7.2-35.6c1.5-0.2,3.1-0.3,4.6-0.4L553.5,304.8z M541.8,227.9l5.4,35.8c-1.6,0.1-3.3,0.3-4.9,0.4l-7.2-35.6
			C537.3,228.3,539.6,228.1,541.8,227.9z M525.2,229.8l9.9,35.3c-2.3,0.3-4.6,0.7-6.9,1.2l-12.5-34.8
			C518.9,230.8,522,230.3,525.2,229.8z M507.8,233.1l14.7,34.3c-2.8,0.6-5.6,1.3-8.3,2.1L496.4,236C500.2,235,504,234,507.8,233.1z
			 M489.9,238l19.5,33c-2.7,0.9-5.4,1.8-8,2.8l-22.4-31.9C482.5,240.5,486.2,239.2,489.9,238z M497.4,275.4
			c-2.6,1.1-5.1,2.2-7.6,3.4l-26.8-30c3.4-1.6,6.9-3.2,10.4-4.7L497.4,275.4z M445.9,208l23.9,31.3c-3.7,1.5-7.3,3.2-10.9,4.9
			l-26.8-30C436.7,212,441.2,210,445.9,208z M425.8,217.4l28.1,29.3c-3.6,1.9-7.1,3.8-10.5,5.8l-30.8-27.8
			C416.9,222.2,421.3,219.7,425.8,217.4z M408.6,227.2l31.6,27.3c-3,1.9-5.9,3.8-8.7,5.8l-33.9-25.8
			C401.2,232,404.9,229.6,408.6,227.2z M394.4,236.9l34.6,25.3c-2.8,2.1-5.5,4.2-8.1,6.4L384.2,245
			C387.4,242.3,390.9,239.6,394.4,236.9z M354.6,207.9l34.6,25.3c-3.6,2.7-7.2,5.5-10.5,8.3L342,217.8
			C346,214.4,350.2,211.1,354.6,207.9z M338.6,220.7l37.2,23.1c-3,2.6-5.9,5.3-8.7,8l-38.9-21.5C331.5,227.1,335,223.9,338.6,220.7z
			 M365.4,253.6c-2.8,2.8-5.5,5.7-8,8.6l-40.8-19.5c3.1-3.5,6.2-6.9,9.5-10.2L365.4,253.6z"/>
	</g>
</g>
</svg>
